<?xml version="1.0"?>
<svg xmlns="http://www.w3.org/2000/svg" xmlns:xlink="http://www.w3.org/1999/xlink" xmlns:svgjs="http://svgjs.com/svgjs" version="1.1" width="512" height="512" x="0" y="0" viewBox="0 0 511.313 511.313" style="enable-background:new 0 0 512 512" xml:space="preserve" class=""><g><g xmlns="http://www.w3.org/2000/svg"><path d="m170.639 0h170.035v80.961h-170.035z" fill="#a43d36" data-original="#000000" style="" class=""/><path d="m370.674 33.385v77.577h-230.035v-77.577h-60.989v477.929h352.014v-477.929zm-141.078 339.6-21.213 21.213-21.401-21.401-21.401 21.401-21.213-21.213 21.401-21.401-21.401-21.401 21.213-21.213 21.401 21.401 21.401-21.401 21.213 21.213-21.401 21.401zm-52.074-107.472-36.581-45.756 23.432-18.733 13.419 16.785 33.256-40.646 23.219 18.997zm191.135 101.071h-104v-30h104zm0-124.59h-104v-30h104z" fill="#a43d36" data-original="#000000" style="" class=""/></g></g></svg>
